<?xml version="1.0" standalone="no"?>
<!DOCTYPE svg PUBLIC "-//W3C//DTD SVG 20010904//EN"
 "http://www.w3.org/TR/2001/REC-SVG-20010904/DTD/svg10.dtd">
<svg version="1.0" xmlns="http://www.w3.org/2000/svg"
 width="984.000000pt" height="984.000000pt" viewBox="0 0 984.000000 984.000000"
 preserveAspectRatio="xMidYMid meet">
<metadata>
Created by potrace 1.11, written by Peter Selinger 2001-2013
</metadata>
<g transform="translate(0.000000,984.000000) scale(0.100000,-0.100000)"
fill="#000000" stroke="none">
<path d="M7880 7875 l0 -1965 -2960 0 -2960 0 0 -990 0 -990 -980 0 -980 0 0
-1965 0 -1965 980 0 980 0 0 1965 0 1965 990 0 990 0 0 -980 0 -980 980 0 980
0 0 -985 0 -985 1970 0 1970 0 0 4920 0 4920 -980 0 -980 0 0 -1965z m0 -4925
l0 -980 -990 0 -990 0 0 980 0 980 990 0 990 0 0 -980z"/>
</g>
</svg>
